<svg width="20" height="20" viewBox="0 0 20 20" fill="none" xmlns="http://www.w3.org/2000/svg">
<path d="M17.9687 16.3105L16.6667 4.06061C16.6667 3.29046 16.07 2.66667 15.3333 2.66667H10H4.66667C3.93 2.66667 3.33333 3.29046 3.33333 4.06061L2.03133 16.3105C2.012 16.406 2 16.5043 2 16.6061C2 17.3762 2.59667 18 3.33333 18H10H16.6667C17.4033 18 18 17.3762 18 16.6061C18 16.5043 17.988 16.406 17.9687 16.3105ZM13.3333 6.0874V6.84849C13.3333 8.77003 11.838 10.3333 10 10.3333C8.162 10.3333 6.66667 8.77003 6.66667 6.84849V6.0874C6.27933 5.94382 6 5.56049 6 5.10607C6 4.52897 6.448 4.06061 7 4.06061C7.552 4.06061 8 4.52897 8 5.10607V6.84849C8 8.00128 8.89733 8.9394 10 8.9394C11.1027 8.9394 12 8.00128 12 6.84849V5.10607C12 4.52897 12.448 4.06061 13 4.06061C13.552 4.06061 14 4.52897 14 5.10607C14 5.56049 13.7207 5.94382 13.3333 6.0874Z" fill="#303030"/>
</svg>
