<svg width="29" height="4" viewBox="0 0 29 4" fill="none" xmlns="http://www.w3.org/2000/svg">
<path d="M4.22573 3.71956V2.05409C4.22573 1.41566 3.83906 0.999285 3.1762 0.999285C2.84477 0.999285 2.48572 1.11032 2.23715 1.47117C2.04382 1.16583 1.76763 0.999285 1.35334 0.999285C1.07715 0.999285 0.800956 1.08256 0.580003 1.3879V1.0548H0V3.71956H0.580003V2.24839C0.580003 1.77651 0.828575 1.55444 1.21524 1.55444C1.60191 1.55444 1.79525 1.80427 1.79525 2.24839V3.71956H2.37525V2.24839C2.37525 1.77651 2.65144 1.55444 3.01049 1.55444C3.39716 1.55444 3.59049 1.80427 3.59049 2.24839V3.71956H4.22573ZM12.8153 1.0548H11.8762V0.249822H11.2962V1.0548H10.7715V1.5822H11.2962V2.80355C11.2962 3.41423 11.5448 3.77508 12.2077 3.77508C12.4562 3.77508 12.7324 3.69181 12.9258 3.58077L12.7601 3.08113C12.5943 3.19216 12.401 3.21992 12.2629 3.21992C11.9867 3.21992 11.8762 3.05337 11.8762 2.77579V1.5822H12.8153V1.0548ZM17.7315 0.999285C17.4001 0.999285 17.1791 1.16583 17.041 1.3879V1.0548H16.461V3.71956H17.041V2.22064C17.041 1.77651 17.2344 1.52669 17.5934 1.52669C17.7039 1.52669 17.842 1.55445 17.9525 1.5822L18.1182 1.02704C18.0077 0.999285 17.842 0.999285 17.7315 0.999285ZM10.3019 1.27686C10.0258 1.08256 9.63909 0.999285 9.2248 0.999285C8.56194 0.999285 8.12003 1.33238 8.12003 1.85978C8.12003 2.30391 8.45146 2.55373 9.03147 2.637L9.30766 2.66476C9.61147 2.72028 9.77718 2.80355 9.77718 2.94234C9.77718 3.13665 9.55623 3.27544 9.16956 3.27544C8.78289 3.27544 8.47908 3.13665 8.28575 2.99786L8.00956 3.44199C8.31337 3.66405 8.72766 3.77508 9.14194 3.77508C9.91528 3.77508 10.3572 3.41423 10.3572 2.91458C10.3572 2.4427 9.99814 2.19288 9.44575 2.1096L9.16956 2.08185C8.92099 2.05409 8.72766 1.99857 8.72766 1.83202C8.72766 1.63772 8.92099 1.52669 9.2248 1.52669C9.55623 1.52669 9.88766 1.66548 10.0534 1.74875L10.3019 1.27686ZM25.7134 0.999285C25.382 0.999285 25.1611 1.16583 25.023 1.3879V1.0548H24.443V3.71956H25.023V2.22064C25.023 1.77651 25.2163 1.52669 25.5753 1.52669C25.6858 1.52669 25.8239 1.55445 25.9344 1.5822L26.1001 1.02704C25.9896 0.999285 25.8239 0.999285 25.7134 0.999285ZM18.3115 2.38718C18.3115 3.19216 18.8639 3.77508 19.7201 3.77508C20.1068 3.77508 20.3829 3.69181 20.6591 3.46974L20.3829 2.99786C20.162 3.16441 19.941 3.24768 19.6925 3.24768C19.2229 3.24768 18.8915 2.91458 18.8915 2.38718C18.8915 1.88754 19.2229 1.55444 19.6925 1.52669C19.941 1.52669 20.162 1.60996 20.3829 1.77651L20.6591 1.30462C20.3829 1.08256 20.1068 0.999285 19.7201 0.999285C18.8639 0.999285 18.3115 1.5822 18.3115 2.38718ZM23.6696 2.38718V1.0548H23.0896V1.3879C22.8963 1.13807 22.6201 0.999285 22.261 0.999285C21.5153 0.999285 20.9353 1.5822 20.9353 2.38718C20.9353 3.19216 21.5153 3.77508 22.261 3.77508C22.6477 3.77508 22.9239 3.63629 23.0896 3.38647V3.71956H23.6696V2.38718ZM21.5429 2.38718C21.5429 1.9153 21.8468 1.52669 22.3439 1.52669C22.8134 1.52669 23.1449 1.88754 23.1449 2.38718C23.1449 2.85907 22.8134 3.24768 22.3439 3.24768C21.8468 3.21992 21.5429 2.85907 21.5429 2.38718ZM14.6105 0.999285C13.8372 0.999285 13.2848 1.55444 13.2848 2.38718C13.2848 3.21992 13.8372 3.77508 14.6382 3.77508C15.0248 3.77508 15.4115 3.66405 15.7153 3.41423L15.4391 2.99786C15.2182 3.16441 14.942 3.27544 14.6658 3.27544C14.3067 3.27544 13.9477 3.10889 13.8648 2.637H15.8258V2.41494C15.8534 1.55444 15.3563 0.999285 14.6105 0.999285ZM14.6105 1.49893C14.9696 1.49893 15.2182 1.72099 15.2734 2.13736H13.8924C13.9477 1.77651 14.1963 1.49893 14.6105 1.49893ZM29.0001 2.38718V0H28.4201V1.3879C28.2268 1.13807 27.9506 0.999285 27.5915 0.999285C26.8458 0.999285 26.2658 1.5822 26.2658 2.38718C26.2658 3.19216 26.8458 3.77508 27.5915 3.77508C27.9782 3.77508 28.2544 3.63629 28.4201 3.38647V3.71956H29.0001V2.38718ZM26.8734 2.38718C26.8734 1.9153 27.1773 1.52669 27.6744 1.52669C28.1439 1.52669 28.4754 1.88754 28.4754 2.38718C28.4754 2.85907 28.1439 3.24768 27.6744 3.24768C27.1773 3.21992 26.8734 2.85907 26.8734 2.38718ZM7.48479 2.38718V1.0548H6.90479V1.3879C6.71146 1.13807 6.43527 0.999285 6.07622 0.999285C5.3305 0.999285 4.7505 1.5822 4.7505 2.38718C4.7505 3.19216 5.3305 3.77508 6.07622 3.77508C6.46289 3.77508 6.73908 3.63629 6.90479 3.38647V3.71956H7.48479V2.38718ZM5.3305 2.38718C5.3305 1.9153 5.63431 1.52669 6.13145 1.52669C6.60098 1.52669 6.93241 1.88754 6.93241 2.38718C6.93241 2.85907 6.60098 3.24768 6.13145 3.24768C5.63431 3.21992 5.3305 2.85907 5.3305 2.38718Z" fill="#242424"/>
</svg>
